	<svg xmlns="http://www.w3.org/2000/svg" xmlns:xlink="http://www.w3.org/1999/xlink" version="1.1" id="Capa_1" x="0px" y="0px" viewBox="0 0 2800 2000" enable-background="new 0 0 2800 2000" xml:space="preserve">

		<path fill="#FEFEFD" d="M365.1,1000c0,464.2,293.4,858.4,701.4,1000h667.2c407.9-141.6,701.4-535.8,701.4-1000  S2141.5,141.6,1733.6,0h-667.2C658.5,141.6,365.1,535.8,365.1,1000z"/>
		<g>
			<g>
				<g>
					<path fill="#E1A731" d="M1434.8,1914.5c0.9,0,1.7,0.8,1.7,0.8l-15,32.7c-1.6,0-5.6,0.2-6.6,0.2c-0.9,0-1.7-0.8-1.7-0.8l-5.1-32.7     c3.1,0,7-0.2,8.2-0.2c0.9,0,1.7,0.8,1.7,0.8l1.6,16c0.1,1.4,0.1,3.3,0.1,5.3c0.5-2.2,1.1-4.3,1.6-5.7l6.2-16.2     C1430.3,1914.8,1433.7,1914.5,1434.8,1914.5L1434.8,1914.5z"/>
				</g>
		
				<g transform="translate(0 241)" class="cloud-front">
					<path fill="#1A232C" d="M87.602,29 L87.602,28 C87.326,28.001 87.103,28.024 86.927,28.033 L86.979,29.031 L87.947,28.78 C85.741,20.282 78.041,14.002 68.852,14 C67.858,14 66.904,14.096 65.98,14.231 L66.125,15.22 L67.019,14.772 C62.626,6.015 53.567,0.001 43.102,0 C29.041,0.002 17.524,10.848 16.443,24.632 L17.44,24.71 L17.606,23.724 C16.803,23.589 15.969,23.5 15.102,23.5 C6.817,23.501 0.102,30.215 0.102,38.5 C0.102,46.785 6.817,53.499 15.102,53.5 L87.602,53.5 C94.644,53.499 100.351,47.792 100.352,40.75 C100.351,33.708 94.644,28.001 87.602,28 L87.602,30 C90.573,30 93.254,31.202 95.203,33.149 C97.15,35.097 98.351,37.778 98.352,40.75 C98.351,43.722 97.15,46.403 95.203,48.351 C93.254,50.298 90.573,51.5 87.602,51.5 L15.102,51.5 C11.509,51.5 8.265,50.046 5.909,47.692 C3.555,45.337 2.102,42.093 2.102,38.5 C2.102,34.907 3.555,31.663 5.909,29.308 C8.265,26.954 11.509,25.5 15.102,25.5 C15.831,25.5 16.553,25.575 17.273,25.697 C17.551,25.743 17.832,25.672 18.055,25.499 C18.277,25.325 18.414,25.07 18.436,24.789 C19.436,12.04 30.094,1.998 43.102,2 C52.786,1.999 61.163,7.564 65.231,15.669 C65.425,16.055 65.842,16.272 66.27,16.21 C67.132,16.084 67.988,16 68.852,16 C77.108,15.998 84.027,21.647 86.011,29.283 C86.13,29.741 86.557,30.054 87.031,30.03 C87.27,30.017 87.457,29.999 87.602,30 L87.602,29" transform="translate(38 36)"></path>
						</g>
						<g transform="translate(446 48)" class="cloud-back">
							<path fill="#FBFDFC" d="M6.576,15.756 C7.715,11.539 11.462,8.405 15.984,8.187 C18.35,4.065 22.785,1.282 27.877,1.282 C35.451,1.282 41.59,7.422 41.59,14.995 C41.59,15.386 41.564,15.77 41.531,16.153 C42.297,15.838 43.134,15.662 44.013,15.662 C47.615,15.662 50.536,18.582 50.536,22.185 C50.536,25.787 47.615,28.708 44.013,28.708 L8.321,28.708 L8.321,28.672 C8.098,28.695 7.871,28.708 7.641,28.708 C4.039,28.708 1.117,25.787 1.117,22.185 C1.117,18.946 3.481,16.266 6.576,15.756"></path>
							<path fill="#1A232C" d="M6.576,15.756 L7.542,16.016 C8.569,12.212 11.952,9.381 16.033,9.186 C16.373,9.169 16.682,8.98 16.852,8.685 C19.048,4.86 23.156,2.282 27.877,2.282 C31.391,2.283 34.563,3.704 36.867,6.006 C39.169,8.309 40.589,11.481 40.59,14.995 C40.59,15.343 40.567,15.698 40.535,16.066 C40.505,16.412 40.659,16.753 40.939,16.959 C41.219,17.164 41.59,17.21 41.912,17.078 C42.562,16.81 43.268,16.662 44.013,16.661 C45.541,16.662 46.916,17.278 47.918,18.279 C48.919,19.282 49.536,20.656 49.536,22.185 C49.536,23.713 48.919,25.088 47.918,26.09 C46.916,27.091 45.541,27.707 44.013,27.708 L8.321,27.708 L8.321,28.708 L9.321,28.708 L9.321,28.672 C9.321,28.39 9.201,28.119 8.991,27.93 C8.782,27.741 8.5,27.649 8.219,27.677 C8.027,27.697 7.834,27.708 7.641,27.708 C6.113,27.707 4.738,27.091 3.735,26.09 C2.734,25.088 2.118,23.713 2.117,22.185 C2.115,19.444 4.12,17.174 6.739,16.742 C7.126,16.679 7.439,16.395 7.542,16.016 L6.576,15.756 L6.414,14.769 C2.843,15.357 0.119,18.447 0.117,22.185 C0.118,26.34 3.486,29.707 7.641,29.708 C7.908,29.708 8.169,29.693 8.423,29.667 L8.321,28.672 L7.321,28.672 L7.321,28.708 C7.321,28.971 7.428,29.229 7.614,29.415 C7.8,29.601 8.058,29.708 8.321,29.708 L44.013,29.708 C48.168,29.707 51.535,26.34 51.536,22.185 C51.535,18.029 48.168,14.662 44.013,14.662 C43,14.661 42.032,14.865 41.151,15.228 L41.531,16.153 L42.528,16.239 C42.562,15.843 42.59,15.429 42.59,14.995 C42.589,6.869 36.004,0.283 27.877,0.282 C22.414,0.282 17.651,3.27 15.117,7.689 L15.984,8.187 L15.936,7.188 C10.972,7.429 6.861,10.865 5.611,15.495 L6.576,15.756 L6.414,14.769 L6.576,15.756"></path>
					</g>
					<path fill="#EDC655" class="sun" d="M380.124,43.03 C380.124,30.313 390.433,20.004 403.149,20.004 C415.866,20.004 426.175,30.313 426.175,43.03 C426.175,55.746 415.866,66.056 403.149,66.056 C390.433,66.056 380.124,55.746 380.124,43.03"></path>
					<path fill="#1A232C" d="M380.124 43.03L381.124 43.03C381.125 36.944 383.588 31.444 387.575 27.455 391.564 23.468 397.064 21.004 403.149 21.004 409.235 21.004 414.735 23.468 418.724 27.455 422.711 31.444 425.174 36.944 425.175 43.03 425.174 49.115 422.711 54.615 418.724 58.604 414.735 62.592 409.235 65.055 403.149 65.056 397.064 65.055 391.564 62.592 387.575 58.604 383.588 54.615 381.125 49.115 381.124 43.03L379.124 43.03C379.125 56.299 389.88 67.055 403.149 67.056 416.419 67.055 427.174 56.299 427.175 43.03 427.174 29.76 416.419 19.004 403.149 19.004 389.88 19.004 379.125 29.76 379.124 43.03L380.124 43.03M381.18 22.782C384.441 19.246 388.544 16.499 393.169 14.86 393.69 14.676 393.962 14.104 393.778 13.584 393.594 13.063 393.022 12.791 392.502 12.975 387.564 14.725 383.187 17.655 379.71 21.426 379.336 21.832 379.361 22.465 379.767 22.839 380.173 23.214 380.806 23.188 381.18 22.782zM400.715 13.251C401.518 13.186 402.33 13.153 403.149 13.153 407.323 13.153 411.292 14.008 414.898 15.552 415.406 15.769 415.994 15.534 416.211 15.026 416.428 14.518 416.193 13.93 415.685 13.713 411.837 12.065 407.597 11.153 403.149 11.153 402.276 11.153 401.41 11.188 400.554 11.257 400.004 11.302 399.594 11.784 399.638 12.334 399.682 12.885 400.164 13.295 400.715 13.251zM421.54 19.483C425.344 22.458 428.408 26.335 430.411 30.789 430.638 31.293 431.23 31.518 431.734 31.291 432.237 31.065 432.462 30.473 432.236 29.969 430.097 25.214 426.829 21.081 422.773 17.907 422.338 17.567 421.709 17.644 421.369 18.079 421.029 18.514 421.105 19.143 421.54 19.483zM432.634 38.177C432.891 39.756 433.025 41.377 433.025 43.03 433.025 46.344 432.487 49.528 431.492 52.504 431.317 53.028 431.6 53.595 432.124 53.77 432.648 53.945 433.214 53.662 433.389 53.138 434.451 49.961 435.025 46.561 435.025 43.03 435.025 41.269 434.882 39.54 434.607 37.855 434.518 37.31 434.004 36.94 433.459 37.029 432.914 37.118 432.545 37.632 432.634 38.177zM428.116 59.444C425.45 63.492 421.824 66.854 417.566 69.204 417.082 69.471 416.907 70.079 417.174 70.563 417.44 71.047 418.049 71.222 418.532 70.955 423.077 68.447 426.942 64.863 429.786 60.545 430.09 60.084 429.963 59.463 429.501 59.16 429.04 58.856 428.42 58.983 428.116 59.444zM410.384 72.024C408.068 72.6 405.646 72.906 403.149 72.906 400.689 72.906 398.3 72.609 396.014 72.049 395.477 71.917 394.936 72.246 394.805 72.782 394.673 73.319 395.001 73.86 395.538 73.991 397.978 74.589 400.528 74.906 403.149 74.906 405.809 74.906 408.395 74.58 410.867 73.965 411.403 73.832 411.729 73.289 411.596 72.754 411.463 72.218 410.92 71.891 410.384 72.024zM388.821 69.253C384.554 66.916 380.917 63.566 378.238 59.528 377.932 59.068 377.312 58.942 376.852 59.248 376.391 59.553 376.266 60.174 376.571 60.634 379.43 64.941 383.307 68.513 387.86 71.007 388.345 71.272 388.952 71.094 389.218 70.61 389.483 70.126 389.305 69.518 388.821 69.253zM374.839 52.6C373.824 49.597 373.274 46.379 373.273 43.03 373.274 37.989 374.52 33.246 376.721 29.083 376.979 28.595 376.793 27.99 376.305 27.732 375.816 27.473 375.211 27.66 374.953 28.148 372.604 32.59 371.273 37.658 371.273 43.03 371.273 46.599 371.861 50.034 372.944 53.241 373.121 53.764 373.689 54.045 374.212 53.868 374.735 53.691 375.016 53.124 374.839 52.6L374.839 52.6z"></path>
				<g>
					<path fill="#E1A731" d="M1450.2,1930.7c0,3.6-1.9,5.9-6.8,6.9l-5.1,1.1c0.4,2.2,1.8,3.3,4.1,3.3c2.8,0,4.7-2.2,4.7-2.2     s1.4,0.8,1.4,2.5c0,3-4.5,6.2-9.7,6.2c-5.3,0-8.7-3.4-8.7-9.1c0-6.6,4.6-15.6,12.8-15.6     C1447.4,1923.8,1450.2,1926.5,1450.2,1930.7L1450.2,1930.7z M1441.6,1934.1c1.1-0.3,1.4-1.3,1.4-2.3c0-1-0.3-2.5-1.4-2.5     c-2,0-2.9,3.3-3.2,5.8L1441.6,1934.1z"/>
				</g>
				<g>
					<path fill="#E1A731" d="M1464,1923.8c4.1,0,7.2,2.2,7.2,5.1c0,3.6-4.3,5-4.3,5s-1.3-4-4.2-4c-2,0-3.1,2-3.1,6.3     c0,4,1,5.8,3.5,5.8c2.6,0,4.2-1.8,4.2-1.8s1.4,0.8,1.4,2.4c0,2.8-4.3,5.9-9.3,5.9c-5.3,0-8.6-3.4-8.6-9     C1450.9,1932.8,1455.6,1923.8,1464,1923.8L1464,1923.8z"/>
				</g>
				<g>
					<path fill="#E1A731" d="M1483.8,1918.5c1,0,1.7,0.8,1.7,0.8l-0.8,5h5.2l-1.2,3.8c-0.4,1.2-1,1.9-2.2,1.9h-2.7l-1.5,9.7     c-0.2,1.6,0.1,2.3,1.1,2.3c1,0,1.9-0.6,1.9-0.6s1.4,0.8,1.4,2.4c0,2.4-3.3,4.7-7.5,4.7c-4.5,0-6.3-2.8-5.5-7.7l1.7-10.9h-2.8     l1.2-4c0.3-1,1.1-1.7,2.1-1.7h1.4l1.6-4.6C1481,1919.2,1482.9,1918.5,1483.8,1918.5L1483.8,1918.5z"/>
				</g>
				<g>
					<path fill="#E1A731" d="M1509,1930.7c0,3.6-1.9,5.9-6.8,6.9l-5.1,1.1c0.4,2.2,1.8,3.3,4.1,3.3c2.8,0,4.7-2.2,4.7-2.2     s1.4,0.8,1.4,2.5c0,3-4.5,6.2-9.7,6.2c-5.3,0-8.7-3.4-8.7-9.1c0-6.6,4.6-15.6,12.8-15.6C1506.2,1923.8,1509,1926.5,1509,1930.7     L1509,1930.7z M1500.4,1934.1c1.1-0.3,1.4-1.3,1.4-2.3c0-1-0.3-2.5-1.4-2.5c-2,0-2.9,3.3-3.2,5.8L1500.4,1934.1z"/>
				</g>
				<g>
					<path fill="#E1A731" d="M1529.8,1930.7c0,3.6-1.9,5.9-6.8,6.9l-5.1,1.1c0.4,2.2,1.8,3.3,4.1,3.3c2.8,0,4.7-2.2,4.7-2.2     s1.4,0.8,1.4,2.5c0,3-4.5,6.2-9.7,6.2c-5.3,0-8.7-3.4-8.7-9.1c0-6.6,4.6-15.6,12.8-15.6C1527,1923.8,1529.8,1926.5,1529.8,1930.7     L1529.8,1930.7z M1521.1,1934.1c1.1-0.3,1.4-1.3,1.4-2.3c0-1-0.3-2.5-1.4-2.5c-2,0-2.9,3.3-3.2,5.8L1521.1,1934.1z"/>
				</g>
				<g>
					<path fill="#E1A731" d="M1546.8,1939.6c0,0,1.8,1.7,1.8,4.4c0,3.6-3,4.6-5.6,4.6c-3.3,0-5.7-1.6-8.2-2.5c-0.7,0.8-1.4,1.7-2,2.5     c0,0-3.7-0.1-3.7-2.7c0-3.2,5.2-8.6,10.7-14.7c-0.6-0.1-1.3-0.2-1.8-0.2c-3.2,0-4.4,1.6-4.4,1.6s-1.6-1.9-1.5-4.4     c0.2-3.4,3.4-4.4,5.9-4.4c2.7,0,4.6,1.1,6.6,1.9l1.6-1.9c0,0,3.8,0.1,3.8,2.7c0,3-5,8.4-10.4,14.3c1.1,0.3,2.2,0.6,3.3,0.6     C1545.5,1941.4,1546.8,1939.6,1546.8,1939.6L1546.8,1939.6z"/>
				</g>
				<g>
					<path fill="#E1A731" d="M1570.9,1946.5c-1.3,8.3-6.9,12.6-14,12.6c-4.5,0-7.9-2.4-7.9-5.2c0-1.9,1.5-2.7,1.5-2.7s1.5,1.4,4.6,1.4     c2.8,0,6.7-1.2,7.4-5.6l0.5-3.4c-1.9,2.8-4.4,5.1-7.6,5.1c-3.6,0-5.2-3-4.2-9.1l1-6.6c0.6-4,0.8-7.3,0.8-7.3     c2.6-0.5,5.9-1.7,7.1-1.7c0.9,0,1.8,0.8,1.8,0.8l-1.3,8.3l-1.2,7.6c-0.1,0.7,0,1.1,0.6,1.1c3,0,4.7-8.7,4.7-8.7     c0.6-4,0.8-7.3,0.8-7.3c2.6-0.5,5.9-1.7,7.1-1.7c0.9,0,1.8,0.8,1.8,0.8l-1.3,8.3L1570.9,1946.5z"/>
				</g>
			</g>
			<g>
				<path fill="#E1A731" d="M1225.7,1925.1h8c1.8,0,3.2,0.1,4.1,0.4c1.3,0.4,2.4,1.1,3.3,2c0.9,1,1.6,2.2,2.1,3.6    c0.5,1.4,0.7,3.2,0.7,5.2c0,1.8-0.2,3.4-0.7,4.7c-0.5,1.6-1.3,2.9-2.3,3.9c-0.8,0.8-1.8,1.3-3.1,1.8c-1,0.3-2.3,0.5-3.9,0.5h-8.3    V1925.1z M1230.1,1928.9v14.7h3.3c1.2,0,2.1-0.1,2.7-0.2c0.7-0.2,1.3-0.5,1.8-0.9c0.5-0.4,0.9-1.1,1.1-2.1c0.3-1,0.4-2.3,0.4-4.1    c0-1.7-0.1-3-0.4-3.9c-0.3-0.9-0.7-1.6-1.2-2.1c-0.5-0.5-1.2-0.9-2-1c-0.6-0.1-1.8-0.2-3.6-0.2H1230.1z"/>
				<path fill="#E1A731" d="M1256.1,1942.2l4.2,0.7c-0.5,1.6-1.4,2.7-2.5,3.5c-1.2,0.8-2.6,1.2-4.3,1.2c-2.7,0-4.8-0.9-6.1-2.7    c-1-1.5-1.6-3.3-1.6-5.5c0-2.7,0.7-4.7,2-6.3c1.4-1.5,3.1-2.3,5.2-2.3c2.3,0,4.2,0.8,5.5,2.4c1.4,1.6,2,4,1.9,7.3H1250    c0,1.3,0.4,2.2,1,2.9c0.6,0.7,1.4,1.1,2.4,1.1c0.7,0,1.2-0.2,1.6-0.5S1255.9,1943,1256.1,1942.2z M1256.3,1937.9    c0-1.2-0.3-2.2-0.9-2.8c-0.6-0.6-1.3-1-2.2-1c-0.9,0-1.7,0.3-2.3,1c-0.6,0.7-0.9,1.6-0.9,2.8H1256.3z"/>
				<path fill="#E1A731" d="M1261.8,1942.7l4.2-0.7c0.2,0.8,0.5,1.5,1.1,1.9c0.5,0.4,1.3,0.6,2.3,0.6c1.1,0,1.9-0.2,2.4-0.6    c0.4-0.3,0.5-0.7,0.5-1.1c0-0.3-0.1-0.6-0.3-0.8c-0.2-0.2-0.7-0.4-1.4-0.6c-3.4-0.8-5.5-1.4-6.4-2.1c-1.2-0.9-1.9-2.1-1.9-3.6    c0-1.4,0.5-2.6,1.6-3.5c1.1-0.9,2.7-1.4,5-1.4c2.2,0,3.8,0.4,4.8,1.1c1,0.7,1.8,1.8,2.2,3.2l-3.9,0.7c-0.2-0.6-0.5-1.1-1-1.4    c-0.5-0.3-1.1-0.5-2-0.5c-1.1,0-1.9,0.2-2.4,0.5c-0.3,0.2-0.5,0.5-0.5,0.9c0,0.3,0.1,0.6,0.4,0.8c0.4,0.3,1.7,0.7,3.9,1.2    c2.2,0.5,3.8,1.1,4.6,1.9c0.9,0.8,1.3,1.8,1.3,3.2c0,1.5-0.6,2.7-1.8,3.8c-1.2,1.1-3,1.6-5.4,1.6c-2.1,0-3.8-0.4-5.1-1.3    C1263,1945.5,1262.2,1944.3,1261.8,1942.7z"/>
				<path fill="#E1A731" d="M1279.5,1929.1v-3.9h4.2v3.9H1279.5z M1279.5,1947.3v-16.1h4.2v16.1H1279.5z"/>
				<path fill="#E1A731" d="M1287,1948.4l4.8,0.6c0.1,0.6,0.3,1,0.5,1.2c0.4,0.3,1,0.5,1.9,0.5c1.1,0,1.9-0.2,2.4-0.5    c0.4-0.2,0.6-0.6,0.8-1.1c0.1-0.4,0.2-1,0.2-2v-2.3c-1.2,1.7-2.8,2.6-4.7,2.6c-2.1,0-3.8-0.9-5-2.7c-1-1.4-1.5-3.2-1.5-5.4    c0-2.7,0.6-4.7,1.9-6.2c1.3-1.4,2.8-2.1,4.7-2.1c1.9,0,3.6,0.9,4.8,2.6v-2.3h3.9v14.4c0,1.9-0.2,3.3-0.5,4.3    c-0.3,0.9-0.7,1.7-1.3,2.2c-0.6,0.5-1.3,1-2.2,1.3c-0.9,0.3-2.1,0.5-3.5,0.5c-2.7,0-4.6-0.5-5.7-1.4c-1.1-0.9-1.7-2.1-1.7-3.5    C1286.9,1948.7,1286.9,1948.6,1287,1948.4z M1290.7,1939c0,1.7,0.3,3,1,3.7c0.6,0.8,1.4,1.2,2.4,1.2c1,0,1.9-0.4,2.6-1.2    c0.7-0.8,1.1-2,1.1-3.6c0-1.7-0.3-2.9-1-3.7c-0.7-0.8-1.5-1.2-2.5-1.2c-1,0-1.8,0.4-2.5,1.2    C1291,1936.1,1290.7,1937.3,1290.7,1939z"/>
				<path fill="#E1A731" d="M1319.6,1947.3h-4.2v-8.2c0-1.7-0.1-2.9-0.3-3.4c-0.2-0.5-0.5-0.9-0.9-1.2c-0.4-0.3-0.9-0.4-1.4-0.4    c-0.7,0-1.4,0.2-1.9,0.6c-0.6,0.4-1,0.9-1.2,1.6c-0.2,0.7-0.3,1.9-0.3,3.7v7.3h-4.2v-16.1h3.9v2.4c1.4-1.8,3.1-2.7,5.2-2.7    c0.9,0,1.8,0.2,2.5,0.5c0.8,0.3,1.3,0.8,1.7,1.3c0.4,0.5,0.7,1.1,0.8,1.8c0.2,0.7,0.2,1.6,0.2,2.9V1947.3z"/>
				<path fill="#E1A731" d="M1332.3,1942.2l4.2,0.7c-0.5,1.6-1.4,2.7-2.5,3.5c-1.2,0.8-2.6,1.2-4.3,1.2c-2.7,0-4.8-0.9-6.1-2.7    c-1-1.5-1.6-3.3-1.6-5.5c0-2.7,0.7-4.7,2-6.3c1.4-1.5,3.1-2.3,5.2-2.3c2.3,0,4.2,0.8,5.5,2.4c1.4,1.6,2,4,1.9,7.3h-10.4    c0,1.3,0.4,2.2,1,2.9c0.6,0.7,1.4,1.1,2.4,1.1c0.7,0,1.2-0.2,1.6-0.5C1331.8,1943.6,1332.1,1943,1332.3,1942.2z M1332.6,1937.9    c0-1.2-0.3-2.2-0.9-2.8c-0.6-0.6-1.3-1-2.2-1c-0.9,0-1.7,0.3-2.3,1c-0.6,0.7-0.9,1.6-0.9,2.8H1332.6z"/>
				<path fill="#E1A731" d="M1353.9,1947.3h-3.9v-2.4c-0.6,0.9-1.4,1.6-2.3,2c-0.9,0.4-1.8,0.7-2.6,0.7c-1.8,0-3.4-0.7-4.6-2.2    c-1.3-1.5-1.9-3.6-1.9-6.2c0-2.7,0.6-4.8,1.9-6.2c1.3-1.4,2.8-2.1,4.8-2.1c1.8,0,3.3,0.7,4.6,2.2v-8h4.2V1947.3z M1342.8,1938.9    c0,1.7,0.2,3,0.7,3.7c0.7,1.1,1.6,1.7,2.8,1.7c1,0,1.8-0.4,2.4-1.2c0.7-0.8,1-2.1,1-3.7c0-1.8-0.3-3.2-1-4    c-0.7-0.8-1.5-1.2-2.5-1.2c-1,0-1.8,0.4-2.5,1.2C1343.1,1936.1,1342.8,1937.3,1342.8,1938.9z"/>
				<path fill="#E1A731" d="M1365.1,1947.3v-22.2h4.2v8c1.3-1.5,2.8-2.2,4.6-2.2c1.9,0,3.5,0.7,4.8,2.1c1.3,1.4,1.9,3.5,1.9,6.1    c0,2.7-0.6,4.9-1.9,6.3c-1.3,1.5-2.8,2.2-4.7,2.2c-0.9,0-1.8-0.2-2.7-0.7c-0.9-0.5-1.6-1.1-2.3-2v2.4H1365.1z M1369.2,1938.9    c0,1.7,0.3,2.9,0.8,3.7c0.7,1.1,1.7,1.7,2.9,1.7c0.9,0,1.7-0.4,2.3-1.2c0.6-0.8,1-2.1,1-3.8c0-1.8-0.3-3.2-1-4    c-0.7-0.8-1.5-1.2-2.5-1.2c-1,0-1.8,0.4-2.5,1.2C1369.5,1936.1,1369.2,1937.3,1369.2,1938.9z"/>
				<path fill="#E1A731" d="M1381.2,1931.3h4.4l3.8,11.4l3.7-11.4h4.3l-5.6,15.5l-1,2.8c-0.4,0.9-0.7,1.7-1,2.1    c-0.3,0.5-0.7,0.9-1.1,1.2c-0.4,0.3-1,0.5-1.6,0.7c-0.6,0.2-1.3,0.3-2.1,0.3c-0.8,0-1.6-0.1-2.4-0.3l-0.4-3.3    c0.7,0.1,1.2,0.2,1.8,0.2c1,0,1.7-0.3,2.1-0.9c0.5-0.6,0.8-1.3,1.1-2.2L1381.2,1931.3z"/>
			</g>
		</g>
		<g>
			<polygon fill="#E0A62F" points="2345.9,1056.6 1672.6,1056.6 1672.6,1135.8 1127.4,1135.8 1127.4,1056.6 454.1,1056.6    436.1,1200.6 2363.9,1200.6  "/>
			<rect x="1134.2" y="854.9" fill="#E0A62F" width="531.7" height="294.4"/>
			<polygon fill="#E0A62F" points="1655.4,499.7 1144.6,499.7 1149.4,474.5 1650.6,474.5  "/>
			<polygon fill="#E0A62F" points="1400,848.2 1094.5,848.2 1247.2,733.6 1400,619 1552.8,733.6 1705.5,848.2  "/>
			<polygon fill="#E0A62F" points="1400,610.6 1624,778.6 1624,510.8 1176,510.8 1176,778.6  "/>
			<path fill="#FFFFFF" d="M1646.9,827h-493.8L1400,641.9L1646.9,827z M1164.8,823.1h470.4L1400,646.7L1164.8,823.1z"/>
			<rect x="1681.4" y="1210" fill="#E0A62F" width="682.6" height="405.3"/>
			<rect x="436.1" y="1210" fill="#E0A62F" width="682.6" height="405.3"/>
			<rect x="1130.1" y="1210" fill="#E0A62F" width="539.8" height="402.2"/>
			<g>
				<rect x="1150.7" y="867.7" fill="#FFFFFF" width="12.9" height="79.7"/>
				<rect x="1204.6" y="867.7" fill="#FFFFFF" width="12.9" height="79.7"/>
				<rect x="1231.6" y="867.7" fill="#FFFFFF" width="12.9" height="79.7"/>
				<rect x="1258.6" y="867.7" fill="#FFFFFF" width="12.9" height="79.7"/>
				<rect x="1285.6" y="867.7" fill="#FFFFFF" width="12.9" height="79.7"/>
				<rect x="1312.6" y="867.7" fill="#FFFFFF" width="12.9" height="79.7"/>
				<rect x="1339.6" y="867.7" fill="#FFFFFF" width="12.9" height="79.7"/>
				<rect x="1366.6" y="867.7" fill="#FFFFFF" width="12.9" height="79.7"/>
				<rect x="1393.6" y="867.7" fill="#FFFFFF" width="12.9" height="79.7"/>
				<rect x="1420.6" y="867.7" fill="#FFFFFF" width="12.9" height="79.7"/>
				<rect x="1447.6" y="867.7" fill="#FFFFFF" width="12.9" height="79.7"/>
				<rect x="1474.5" y="867.7" fill="#FFFFFF" width="12.9" height="79.7"/>
				<rect x="1501.5" y="867.7" fill="#FFFFFF" width="12.9" height="79.7"/>
				<rect x="1528.5" y="867.7" fill="#FFFFFF" width="12.9" height="79.7"/>
				<rect x="1555.5" y="867.7" fill="#FFFFFF" width="12.9" height="79.7"/>
				<rect x="1582.5" y="867.7" fill="#FFFFFF" width="12.9" height="79.7"/>
				<rect x="1609.5" y="867.7" fill="#FFFFFF" width="12.9" height="79.7"/>
				<rect x="1636.5" y="867.7" fill="#FFFFFF" width="12.9" height="79.7"/>
				<rect x="1177.7" y="867.7" fill="#FFFFFF" width="12.9" height="79.7"/>
			</g>
			<g>
				<rect x="1265.7" y="779.7" fill="#FFFFFF" width="79.7" height="12.9"/>
				<rect x="1454.6" y="779.7" fill="#FFFFFF" width="79.7" height="12.9"/>
			</g>
			<g>
				<path fill="#FFFFFF" d="M551.3,1615.3v-201.2c0-53.1-15.7-96.5-34.8-96.5h-20.1c-19.1,0-34.8,43.4-34.8,96.5v201.2H551.3z"/>
				<path fill="#FFFFFF" d="M659.7,1615.3v-201.2c0-53.1-15.7-96.5-34.8-96.5h-20.1c-19.1,0-34.8,43.4-34.8,96.5v201.2H659.7z"/>
				<path fill="#FFFFFF" d="M768,1615.3v-201.2c0-53.1-15.7-96.5-34.8-96.5h-20.1c-19.1,0-34.8,43.4-34.8,96.5v201.2H768z"/>
				<path fill="#FFFFFF" d="M876.4,1615.3v-201.2c0-53.1-15.7-96.5-34.8-96.5h-20.1c-19.1,0-34.8,43.4-34.8,96.5v201.2H876.4z"/>
				<path fill="#FFFFFF" d="M984.8,1615.3v-201.2c0-53.1-15.7-96.5-34.8-96.5h-20.1c-19.1,0-34.8,43.4-34.8,96.5v201.2H984.8z"/>
				<path fill="#FFFFFF" d="M1093.1,1615.3v-201.2c0-53.1-15.7-96.5-34.8-96.5h-20.1c-19.1,0-34.8,43.4-34.8,96.5v201.2H1093.1z"/>
			</g>
			<g>
				<path fill="#FFFFFF" d="M1317.1,1612.2V1352c0-68.7-20.4-124.8-45.4-124.8h-26.3c-25,0-45.4,56.2-45.4,124.8v260.2H1317.1z"/>
				<path fill="#FFFFFF" d="M1458.6,1612.2V1352c0-68.7-20.4-124.8-45.4-124.8h-26.3c-25,0-45.4,56.2-45.4,124.8v260.2H1458.6z"/>
				<path fill="#FFFFFF" d="M1600,1612.2V1352c0-68.7-20.4-124.8-45.4-124.8h-26.3c-25,0-45.4,56.2-45.4,124.8v260.2H1600z"/>
			</g>
			<g>
				<path fill="#FFFFFF" d="M1365.7,1201.5v-75.3c0-19.9-8.4-36.1-18.8-36.1h-10.9c-10.3,0-18.8,16.3-18.8,36.1v75.3H1365.7z"/>
				<path fill="#FFFFFF" d="M1424.2,1201.5v-75.3c0-19.9-8.4-36.1-18.8-36.1h-10.9c-10.3,0-18.8,16.3-18.8,36.1v75.3H1424.2z"/>
				<path fill="#FFFFFF" d="M1482.7,1201.5v-75.3c0-19.9-8.4-36.1-18.8-36.1H1453c-10.3,0-18.8,16.3-18.8,36.1v75.3H1482.7z"/>
			</g>
			<g>
				<path fill="#FFFFFF" d="M482.4,1282.8v-39.6c0-10.4-3.8-19-8.5-19H469c-4.7,0-8.5,8.5-8.5,19v39.6H482.4z"/>
				<path fill="#FFFFFF" d="M518.4,1282.8v-39.6c0-10.4-3.8-19-8.5-19H505c-4.7,0-8.5,8.5-8.5,19v39.6H518.4z"/>
				<path fill="#FFFFFF" d="M554.4,1282.8v-39.6c0-10.4-3.8-19-8.5-19H541c-4.7,0-8.5,8.5-8.5,19v39.6H554.4z"/>
				<path fill="#FFFFFF" d="M590.4,1282.8v-39.6c0-10.4-3.8-19-8.5-19H577c-4.7,0-8.5,8.5-8.5,19v39.6H590.4z"/>
				<path fill="#FFFFFF" d="M626.4,1282.8v-39.6c0-10.4-3.8-19-8.5-19H613c-4.7,0-8.5,8.5-8.5,19v39.6H626.4z"/>
				<path fill="#FFFFFF" d="M662.4,1282.8v-39.6c0-10.4-3.8-19-8.5-19h-4.9c-4.7,0-8.5,8.5-8.5,19v39.6H662.4z"/>
				<path fill="#FFFFFF" d="M698.4,1282.8v-39.6c0-10.4-3.8-19-8.5-19h-4.9c-4.7,0-8.5,8.5-8.5,19v39.6H698.4z"/>
				<path fill="#FFFFFF" d="M734.3,1282.8v-39.6c0-10.4-3.8-19-8.5-19h-4.9c-4.7,0-8.5,8.5-8.5,19v39.6H734.3z"/>
				<path fill="#FFFFFF" d="M770.3,1282.8v-39.6c0-10.4-3.8-19-8.5-19h-4.9c-4.7,0-8.5,8.5-8.5,19v39.6H770.3z"/>
				<path fill="#FFFFFF" d="M806.3,1282.8v-39.6c0-10.4-3.8-19-8.5-19h-4.9c-4.7,0-8.5,8.5-8.5,19v39.6H806.3z"/>
				<path fill="#FFFFFF" d="M842.3,1282.8v-39.6c0-10.4-3.8-19-8.5-19h-4.9c-4.7,0-8.5,8.5-8.5,19v39.6H842.3z"/>
				<path fill="#FFFFFF" d="M878.3,1282.8v-39.6c0-10.4-3.8-19-8.5-19h-4.9c-4.7,0-8.5,8.5-8.5,19v39.6H878.3z"/>
				<path fill="#FFFFFF" d="M914.3,1282.8v-39.6c0-10.4-3.8-19-8.5-19h-4.9c-4.7,0-8.5,8.5-8.5,19v39.6H914.3z"/>
				<path fill="#FFFFFF" d="M950.3,1282.8v-39.6c0-10.4-3.8-19-8.5-19h-4.9c-4.7,0-8.5,8.5-8.5,19v39.6H950.3z"/>
				<path fill="#FFFFFF" d="M986.2,1282.8v-39.6c0-10.4-3.8-19-8.5-19h-4.9c-4.7,0-8.5,8.5-8.5,19v39.6H986.2z"/>
				<path fill="#FFFFFF" d="M1022.2,1282.8v-39.6c0-10.4-3.8-19-8.5-19h-4.9c-4.7,0-8.5,8.5-8.5,19v39.6H1022.2z"/>
				<path fill="#FFFFFF" d="M1058.2,1282.8v-39.6c0-10.4-3.8-19-8.5-19h-4.9c-4.7,0-8.5,8.5-8.5,19v39.6H1058.2z"/>
				<path fill="#FFFFFF" d="M1094.2,1282.8v-39.6c0-10.4-3.8-19-8.5-19h-4.9c-4.7,0-8.5,8.5-8.5,19v39.6H1094.2z"/>
			</g>
			<g>
				<path fill="#FFFFFF" d="M1727.7,1282.8v-39.6c0-10.4-3.8-19-8.5-19h-4.9c-4.7,0-8.5,8.5-8.5,19v39.6H1727.7z"/>
				<path fill="#FFFFFF" d="M1763.7,1282.8v-39.6c0-10.4-3.8-19-8.5-19h-4.9c-4.7,0-8.5,8.5-8.5,19v39.6H1763.7z"/>
				<path fill="#FFFFFF" d="M1799.7,1282.8v-39.6c0-10.4-3.8-19-8.5-19h-4.9c-4.7,0-8.5,8.5-8.5,19v39.6H1799.7z"/>
				<path fill="#FFFFFF" d="M1835.7,1282.8v-39.6c0-10.4-3.8-19-8.5-19h-4.9c-4.7,0-8.5,8.5-8.5,19v39.6H1835.7z"/>
				<path fill="#FFFFFF" d="M1871.7,1282.8v-39.6c0-10.4-3.8-19-8.5-19h-4.9c-4.7,0-8.5,8.5-8.5,19v39.6H1871.7z"/>
				<path fill="#FFFFFF" d="M1907.7,1282.8v-39.6c0-10.4-3.8-19-8.5-19h-4.9c-4.7,0-8.5,8.5-8.5,19v39.6H1907.7z"/>
				<path fill="#FFFFFF" d="M1943.6,1282.8v-39.6c0-10.4-3.8-19-8.5-19h-4.9c-4.7,0-8.5,8.5-8.5,19v39.6H1943.6z"/>
				<path fill="#FFFFFF" d="M1979.6,1282.8v-39.6c0-10.4-3.8-19-8.5-19h-4.9c-4.7,0-8.5,8.5-8.5,19v39.6H1979.6z"/>
				<path fill="#FFFFFF" d="M2015.6,1282.8v-39.6c0-10.4-3.8-19-8.5-19h-4.9c-4.7,0-8.5,8.5-8.5,19v39.6H2015.6z"/>
				<path fill="#FFFFFF" d="M2051.6,1282.8v-39.6c0-10.4-3.8-19-8.5-19h-4.9c-4.7,0-8.5,8.5-8.5,19v39.6H2051.6z"/>
				<path fill="#FFFFFF" d="M2087.6,1282.8v-39.6c0-10.4-3.8-19-8.5-19h-4.9c-4.7,0-8.5,8.5-8.5,19v39.6H2087.6z"/>
				<path fill="#FFFFFF" d="M2123.6,1282.8v-39.6c0-10.4-3.8-19-8.5-19h-4.9c-4.7,0-8.5,8.5-8.5,19v39.6H2123.6z"/>
				<path fill="#FFFFFF" d="M2159.6,1282.8v-39.6c0-10.4-3.8-19-8.5-19h-4.9c-4.7,0-8.5,8.5-8.5,19v39.6H2159.6z"/>
				<path fill="#FFFFFF" d="M2195.5,1282.8v-39.6c0-10.4-3.8-19-8.5-19h-4.9c-4.7,0-8.5,8.5-8.5,19v39.6H2195.5z"/>
				<path fill="#FFFFFF" d="M2231.5,1282.8v-39.6c0-10.4-3.8-19-8.5-19h-4.9c-4.7,0-8.5,8.5-8.5,19v39.6H2231.5z"/>
				<path fill="#FFFFFF" d="M2267.5,1282.8v-39.6c0-10.4-3.8-19-8.5-19h-4.9c-4.7,0-8.5,8.5-8.5,19v39.6H2267.5z"/>
				<path fill="#FFFFFF" d="M2303.5,1282.8v-39.6c0-10.4-3.8-19-8.5-19h-4.9c-4.7,0-8.5,8.5-8.5,19v39.6H2303.5z"/>
				<path fill="#FFFFFF" d="M2339.5,1282.8v-39.6c0-10.4-3.8-19-8.5-19h-4.9c-4.7,0-8.5,8.5-8.5,19v39.6H2339.5z"/>
			</g>
			<g>
				<path fill="#FFFFFF" d="M1796.6,1615.3v-199.4c0-52.6-15.7-95.7-34.8-95.7h-20.1c-19.1,0-34.8,43.1-34.8,95.7v199.4H1796.6z"/>
				<path fill="#FFFFFF" d="M1905,1615.3v-199.4c0-52.6-15.7-95.7-34.8-95.7H1850c-19.1,0-34.8,43.1-34.8,95.7v199.4H1905z"/>
				<path fill="#FFFFFF" d="M2013.3,1615.3v-199.4c0-52.6-15.7-95.7-34.8-95.7h-20.1c-19.1,0-34.8,43.1-34.8,95.7v199.4H2013.3z"/>
				<path fill="#FFFFFF" d="M2121.7,1615.3v-199.4c0-52.6-15.7-95.7-34.8-95.7h-20.1c-19.1,0-34.8,43.1-34.8,95.7v199.4H2121.7z"/>
				<path fill="#FFFFFF" d="M2230.1,1615.3v-199.4c0-52.6-15.7-95.7-34.8-95.7h-20.1c-19.1,0-34.8,43.1-34.8,95.7v199.4H2230.1z"/>
				<path fill="#FFFFFF" d="M2338.4,1615.3v-199.4c0-52.6-15.7-95.7-34.8-95.7h-20.1c-19.1,0-34.8,43.1-34.8,95.7v199.4H2338.4z"/>
			</g>
			<g>
				<path fill="#FFFFFF" d="M1407,827c-3-7.6-5.4-15.6-7-23.5c-1.6,7.9-4,16-7,23.5H1407z"/>
				<path fill="#FFFFFF" d="M1390.9,737.4c4.2,7.5,7.2,15.4,9.1,23.7c1.9-8.3,4.9-16.3,9.1-23.7c2.6-4.6,5.6-9,9-13.2    c-3.4-3.1-7.3-5-11.6-5h-13.1c-4.2,0-8.2,1.8-11.6,5C1385.3,728.4,1388.3,732.8,1390.9,737.4z"/>
				<path fill="#FFFFFF" d="M1412.9,739.2c-7.5,13.3-10.3,27-10.7,39.8c0,1.8,0,3.6,0,5.4c0.5,17.8,5.6,33.4,9.4,42.7h17.6v-72.8    c0-10.8-3.2-20.5-8.2-26.9C1417.9,731.1,1415.2,735.1,1412.9,739.2z"/>
				<path fill="#FFFFFF" d="M1397.8,784.4c0-1.8,0-3.6,0-5.4c-0.3-12.8-3.2-26.5-10.7-39.8c-2.3-4.2-5-8.1-8.1-11.9    c-5,6.4-8.2,16.1-8.2,26.9V827h17.6C1392.3,817.7,1397.4,802.2,1397.8,784.4z"/>
			</g>
			<g>
				<path fill="#FFFFFF" d="M1270.7,670.7c-0.1-2.6-0.1-5.1,0-7.6c-0.5-18.2-4.6-37.6-15.2-56.5c-3.3-5.9-7.1-11.5-11.5-16.9    c-7.1,9.1-11.7,22.9-11.7,38.2v103.4h6.8l24.7-18.5C1267.3,700.9,1270.2,686.4,1270.7,670.7z"/>
				<path fill="#FFFFFF" d="M1544.5,606.6c-10.6,18.9-14.7,38.4-15.2,56.5c0.1,2.5,0.1,5,0,7.6c0.4,15.7,3.4,30.2,6.8,42l24.7,18.5    h6.8V627.9c0-15.3-4.6-29.1-11.7-38.2C1551.7,595.1,1547.8,600.7,1544.5,606.6z"/>
				<path fill="#FFFFFF" d="M1526.3,637.7c2.6-11.8,6.9-23.1,12.9-33.7c3.7-6.5,8-12.8,12.8-18.7c-4.8-4.5-10.4-7-16.4-7H1517    c-6,0-11.6,2.6-16.4,7c4.9,5.9,9.2,12.2,12.8,18.7C1519.3,614.6,1523.6,625.9,1526.3,637.7z"/>
				<path fill="#FFFFFF" d="M1484.9,627.9v46.4l34.7,26c2-9,3.4-19,3.7-29.5c-0.1-2.6-0.1-5.1,0-7.6c-0.5-18.2-4.6-37.6-15.2-56.5    c-3.3-5.9-7.1-11.5-11.5-16.9C1489.4,598.8,1484.9,612.6,1484.9,627.9z"/>
				<path fill="#FFFFFF" d="M1526.3,697.9c-0.4,2.1-0.9,4.3-1.4,6.4l3.4,2.6C1527.5,703.8,1526.9,700.8,1526.3,697.9z"/>
				<path fill="#FFFFFF" d="M1315.1,627.9c0-15.3-4.6-29.1-11.7-38.2c-4.3,5.4-8.2,11-11.5,16.9c-10.6,18.9-14.7,38.4-15.2,56.5    c0.1,2.5,0.1,5,0,7.6c0.3,10.5,1.7,20.5,3.7,29.5l34.7-26V627.9z"/>
				<path fill="#FFFFFF" d="M1358.6,627.9v13.7l29.4-22c-1.8-4.3-3.8-8.7-6.2-13c-3.3-5.9-7.1-11.5-11.5-16.9    C1363.2,598.8,1358.6,612.6,1358.6,627.9z"/>
				<path fill="#FFFFFF" d="M1425.7,585.3c-4.8-4.5-10.4-7-16.4-7h-18.6c-6,0-11.6,2.6-16.4,7c4.9,5.9,9.2,12.2,12.8,18.7    c2.2,3.9,4.1,7.8,5.8,11.9l7-5.3l7,5.3c1.7-4,3.7-8,5.8-11.9C1416.5,597.5,1420.8,591.2,1425.7,585.3z"/>
				<path fill="#FFFFFF" d="M1273.7,697.9c-0.6,3-1.3,6-2,8.9l3.4-2.6C1274.6,702.1,1274.1,700,1273.7,697.9z"/>
				<path fill="#FFFFFF" d="M1441.4,627.9c0-15.3-4.6-29.1-11.7-38.2c-4.3,5.4-8.2,11-11.5,16.9c-2.4,4.3-4.5,8.6-6.2,13l29.4,22    V627.9z"/>
				<path fill="#FFFFFF" d="M1273.7,637.7c2.6-11.8,6.9-23.1,12.9-33.7c3.7-6.5,8-12.8,12.8-18.7c-4.8-4.5-10.4-7-16.4-7h-18.6    c-6,0-11.6,2.6-16.4,7c4.9,5.9,9.2,12.2,12.8,18.7C1266.8,614.6,1271.1,625.9,1273.7,637.7z"/>
			</g>
			<path fill="#FFFFFF" d="M1215.9,1200.6c14.8-88.2,91.7-155.7,184.1-155.7c92.4,0,169.3,67.4,184.1,155.7h18.3   c-6.5-42.9-26.4-82.5-57.6-113.7c-38.7-38.7-90.1-60-144.7-60s-106.1,21.3-144.7,60c-31.2,31.2-51.1,70.8-57.6,113.7H1215.9z"/>
			<g>
				<g>
					<polygon fill="#E0A62F" stroke="#FFFFFF" stroke-width="5" stroke-miterlimit="10" points="1194.5,1174.1 1112.7,1174.1      1113.4,1168 1193.7,1168    "/>
					<path fill="#E0A62F" stroke="#FFFFFF" stroke-width="5" stroke-miterlimit="10" d="M1190.3,1166.1c5.2-10.8,0.3-21.1-4.9-30.4     c-5.5-9.3-11.3-17.7-15.8-24.7c-4.6-7-7.9-12.7-10.8-16.6c-2.8-3.9-5.3-6.1-5.1-6.1c0.2,0-2.3,2.2-5.1,6.1     c-2.9,3.9-6.2,9.6-10.8,16.6c-4.5,7-10.3,15.4-15.8,24.7c-5.2,9.3-10.1,19.6-4.9,30.4C1141.5,1166.1,1165.9,1166.1,1190.3,1166.1     z"/>
				</g>
				
					<rect x="1123.9" y="1177.8" fill="#E0A62F" stroke="#FFFFFF" stroke-width="5" stroke-miterlimit="10" width="59.4" height="434.4"/>
			</g>
			<g>
				<g>
					<polygon fill="#E0A62F" stroke="#FFFFFF" stroke-width="5" stroke-miterlimit="10" points="1687.9,1174.1 1606.1,1174.1      1606.8,1168 1687.1,1168    "/>
					<path fill="#E0A62F" stroke="#FFFFFF" stroke-width="5" stroke-miterlimit="10" d="M1683.8,1166.1c5.2-10.8,0.3-21.1-4.9-30.4     c-5.5-9.3-11.3-17.7-15.8-24.7c-4.6-7-7.9-12.7-10.8-16.6c-2.8-3.9-5.3-6.1-5.1-6.1c0.2,0-2.3,2.2-5.1,6.1     c-2.9,3.9-6.2,9.6-10.8,16.6c-4.5,7-10.3,15.4-15.8,24.7c-5.2,9.3-10.1,19.6-4.9,30.4C1634.9,1166.1,1659.3,1166.1,1683.8,1166.1     z"/>
				</g>
				
					<rect x="1617.3" y="1177.8" fill="#E0A62F" stroke="#FFFFFF" stroke-width="5" stroke-miterlimit="10" width="59.4" height="434.4"/>
			</g>
			<path fill="#E0A62F" d="M1629.6,466.5c32.5-44.7,1.8-87.1-30.6-125.6c-34.5-38.5-70.7-73.1-98.8-102c-28.7-29-49.3-52.4-67.7-68.5   c-17.5-16.1-32.8-25-31.9-25c0.9,0-14.4,8.9-31.9,25c-18.3,16.1-38.9,39.5-67.6,68.5c-28.1,29-64.3,63.5-98.8,102   c-32.4,38.5-63.1,80.9-30.6,125.6C1324.4,466.5,1477,466.5,1629.6,466.5z"/>
			<rect x="1398.5" y="48.1" fill="#E0A62F" width="4.5" height="110.7"/>
			<ellipse fill="#E0A62F" cx="1400.7" cy="107.5" rx="22.7" ry="10.8"/>
			<circle fill="#E0A62F" cx="1400.7" cy="50.8" r="10.8"/>
			<g>
				<g>
					<rect x="2118" y="1016.8" fill="#E0A62F" width="86.4" height="30.9"/>
					<rect x="2143.1" y="957.5" fill="#E0A62F" width="36.1" height="55.9"/>
					<rect x="2132.3" y="931.5" fill="#E0A62F" width="57.8" height="22.1"/>
					<rect x="2149.6" y="885.9" fill="#E0A62F" width="23.1" height="41.2"/>
					<rect x="2149.6" y="820.7" fill="#E0A62F" width="23.1" height="41.2"/>
					<rect x="2137.4" y="865.8" fill="#E0A62F" width="47.7" height="16.2"/>
					<polygon fill="#E0A62F" points="2161.2,815 2141.7,815 2151.4,772.1 2161.2,729.2 2170.9,772.1 2180.7,815    "/>
				</g>
				<g>
					<rect x="595.6" y="1016.8" fill="#E0A62F" width="86.4" height="30.9"/>
					<rect x="620.8" y="957.5" fill="#E0A62F" width="36.1" height="55.9"/>
					<rect x="609.9" y="931.5" fill="#E0A62F" width="57.8" height="22.1"/>
					<rect x="627.3" y="885.9" fill="#E0A62F" width="23.1" height="41.2"/>
					<rect x="627.3" y="820.7" fill="#E0A62F" width="23.1" height="41.2"/>
					<rect x="615" y="865.8" fill="#E0A62F" width="47.7" height="16.2"/>
					<polygon fill="#E0A62F" points="638.8,815 619.3,815 629.1,772.1 638.8,729.2 648.6,772.1 658.3,815    "/>
				</g>
			</g>
		</g>
		<polygon fill="#E0A62F" points="2452,1850.4 1400,1850.4 348,1850.4 388.1,1740.2 348,1630 1400,1630 2452,1630 2411.9,1740.2 "/>
		<g>
			<path fill="#FFFFFF" d="M683.3,1685.5l0.6-0.5c9,0.4,15.1,0.6,18.4,0.6l36.4-0.8c10.4,0,18.9,1,25.5,2.9   c6.6,1.9,12.5,5.3,17.7,10.1c5.2,4.8,9.1,10.4,11.7,16.7c2.7,6.4,4,13.1,4,20.3c0,7-1.2,13.9-3.7,20.8c-2.4,6.8-5.9,13-10.4,18.4   c-4.5,5.4-9.6,9.8-15.3,13.1c-5.7,3.3-11.5,5.5-17.2,6.7c-5.8,1.1-11.6,1.7-17.7,1.7c-4,0-11.7-0.2-22.9-0.5   c-3.7-0.1-6.1-0.2-7.3-0.2c-3.6,0-7.9,0.2-13,0.6l-0.6-0.6v-2.6l0.6-0.8c3.1-1.6,4.8-2.5,5.2-2.9c0.4-0.4,0.8-4.9,1.1-13.6   c0.3-8.7,0.4-15.3,0.4-19.9v-28.5l-0.1-17.7c0-3.8-0.1-7-0.2-9.4c-0.1-2.4-0.3-4.1-0.5-5.2c-0.3-1-0.6-1.8-0.9-2.2   c-0.3-0.4-0.9-0.8-1.6-1.1c-0.8-0.3-2-0.5-3.9-0.7l-5.9-0.5l-0.6-0.5V1685.5z M712.1,1787c5.3,1,11.4,1.6,18.3,1.6   c12.1,0,21.7-2,29-6.1c7.2-4,12.6-10,16.2-18s5.4-16.9,5.4-26.8c0-14.7-3.9-26.1-11.7-34.1c-7.8-8.1-20.2-12.1-37-12.1   c-6.9,0-13.6,0.5-20.1,1.6c-0.4,8.5-0.6,18.1-0.6,28.8v24.4l0.2,22.9C711.6,1773.5,711.8,1779.5,712.1,1787z"/>
			<path fill="#FFFFFF" d="M807.7,1795.5l-0.7-0.6v-4l0.7-0.6c3.8-0.1,6.2-0.2,7.3-0.6c1.1-0.3,2.1-1,2.9-2c0.9-1,2.6-4.3,5.2-9.9   l8.2-17.7l21.2-47.9c4-9.4,8-18.8,11.9-28.2h5.1l33.2,78.1l4.4,10.4c1.3,3,2.8,6.2,4.5,9.6c1.7,3.5,2.9,5.5,3.5,6.1   c0.6,0.6,1.5,1.1,2.4,1.4c1,0.3,3.1,0.5,6.4,0.6l0.6,0.6v4l-0.6,0.6c-5.5-0.5-10.4-0.7-14.9-0.7c-8.6,0.3-17.2,0.5-25.8,0.7   l-0.6-0.6v-4l0.6-0.6c5.8-0.1,9.4-0.3,10.9-0.7c1.5-0.4,2.2-1.3,2.2-2.7c0-1.1-0.4-2.6-1.1-4.5l-9.6-23.7h-45l-8.5,19.9   c-1.5,3.6-2.3,6.2-2.3,7.9c0,1.3,0.7,2.3,2.1,2.9c1.4,0.6,4.9,1,10.6,1l0.7,0.6v4l-0.6,0.6c-6.7-0.4-12.5-0.6-17.6-0.6   C819.3,1794.9,813.5,1795.1,807.7,1795.5z M843.2,1751.9h39.4L863,1705L843.2,1751.9z"/>
			<path fill="#FFFFFF" d="M1074.5,1685.2l0.7,0.6v3.8l-0.6,0.5c-5.7,0.2-9.2,0.4-10.6,0.9c-1.4,0.4-2.3,1.1-2.9,2.1   c-0.6,1-0.9,2.8-1,5.6c-0.1,2.8-0.2,10.7-0.4,23.7v35.9c0,5.2,0.1,11,0.2,17.6c0.2,6.5,0.5,10.3,1,11.4c0.5,1.1,1.4,1.8,2.7,2.3   c1.3,0.5,5,0.8,11,1l0.6,0.5v3.8l-0.7,0.6c-8.5-0.5-15.8-0.7-22.1-0.7c-4.3,0-11.5,0.2-21.7,0.7l-0.7-0.6v-3.7l0.6-0.6   c5.7-0.2,9.2-0.4,10.6-0.9c1.4-0.4,2.3-1.1,2.9-2.1c0.6-1,0.9-2.9,1-5.7c0.1-2.9,0.2-10.7,0.4-23.6v-57.1l-26.8,56.2   c-6.7,14.1-12.6,27.3-17.7,39.7h-3c-2.9-6.7-5.3-12-7.2-16l-37.2-77.2v54.4c0,5.1,0.1,10.9,0.2,17.5c0.1,6.6,0.5,10.4,1,11.5   c0.5,1,1.4,1.8,2.7,2.3c1.3,0.5,5,0.8,11,0.9l0.6,0.6v3.7l-0.7,0.7l-5-0.2c-5.1-0.3-9.5-0.4-13.2-0.4c-1.7,0-7.9,0.2-18.6,0.6   l-0.6-0.6v-3.7l0.6-0.7c5.7-0.1,9.2-0.4,10.6-0.8c1.3-0.4,2.3-1.1,2.9-2.1c0.6-1,0.9-2.8,1-5.5c0.1-2.7,0.2-10.7,0.3-23.9v-35.6   c0-4.7-0.1-10.5-0.2-17.2c-0.1-6.8-0.4-10.7-0.9-11.7c-0.5-1.1-1.4-1.9-2.7-2.4c-1.3-0.5-5-0.8-11-0.9l-0.6-0.6v-3.7l0.7-0.7   c3.6,0.3,8.4,0.4,14.5,0.4c5.7,0,10.7-0.1,14.9-0.4c4.4,10.1,8.5,19.2,12.5,27.3l29.5,60.5l26.6-55.5c7.2-15,12.1-25.8,14.5-32.4   c5,0.3,9.9,0.4,14.7,0.4C1063.4,1685.6,1068.6,1685.5,1074.5,1685.2z"/>
			<path fill="#FFFFFF" d="M1082.2,1795.5l-0.7-0.6v-4l0.7-0.6c3.8-0.1,6.2-0.2,7.3-0.6c1.1-0.3,2.1-1,2.9-2c0.9-1,2.6-4.3,5.2-9.9   l8.2-17.7l21.2-47.9c4-9.4,8-18.8,11.9-28.2h5.1l33.2,78.1l4.4,10.4c1.3,3,2.8,6.2,4.5,9.6c1.7,3.5,2.9,5.5,3.5,6.1   s1.5,1.1,2.4,1.4c1,0.3,3.1,0.5,6.4,0.6l0.6,0.6v4l-0.6,0.6c-5.5-0.5-10.4-0.7-14.9-0.7c-8.6,0.3-17.2,0.5-25.8,0.7l-0.6-0.6v-4   l0.6-0.6c5.8-0.1,9.4-0.3,10.9-0.7c1.5-0.4,2.2-1.3,2.2-2.7c0-1.1-0.4-2.6-1.1-4.5l-9.6-23.7h-45l-8.5,19.9   c-1.5,3.6-2.3,6.2-2.3,7.9c0,1.3,0.7,2.3,2.1,2.9c1.4,0.6,4.9,1,10.6,1l0.7,0.6v4l-0.6,0.6c-6.7-0.4-12.5-0.6-17.6-0.6   C1093.8,1794.9,1088,1795.1,1082.2,1795.5z M1117.7,1751.9h39.4l-19.5-46.9L1117.7,1751.9z"/>
			<path fill="#FFFFFF" d="M1208.9,1768.1l0.6-0.6h3.8l0.6,0.6c0.3,6.6,0.6,10.7,1.1,12.2c0.4,1.5,1.8,3,4.2,4.7c2.4,1.6,5.5,3,9.4,4   c3.9,1,7.9,1.6,11.9,1.6c5.5,0,10.4-1,14.8-3c4.4-2,7.8-5,10.2-8.9c2.4-3.9,3.7-8.3,3.7-13.2c0-3.4-0.6-6.4-1.8-8.9   c-1.2-2.5-2.8-4.6-4.9-6.1c-2.1-1.5-4.5-2.7-7.2-3.4c-2.7-0.8-6.7-1.6-12.1-2.4c-5.2-0.8-9.2-1.6-12.2-2.3   c-2.9-0.7-5.8-1.7-8.7-3.1c-2.9-1.4-5.3-3.2-7.3-5.3c-1.9-2.2-3.5-4.8-4.7-7.9c-1.2-3.1-1.7-6.5-1.7-10.1c0-9.7,3.4-17.6,10.1-23.8   c6.7-6.2,15.8-9.3,27.1-9.3c4.5,0,9.4,0.6,14.7,1.7c5.3,1.1,10.1,2.8,14.5,4.9l0.5,0.9c-1.1,4.8-1.8,11.6-2.1,20.4l-0.7,0.6h-4   l-0.6-0.5c-0.1-6.2-0.3-10.1-0.5-11.7s-2.6-3.6-7.1-6c-4.5-2.4-9.4-3.6-14.7-3.6c-4.4,0-8.5,0.9-12.4,2.6c-3.8,1.8-6.7,4.5-8.7,8.3   c-2,3.8-3,7.6-3,11.6c0,3.1,0.6,5.8,1.8,8.1c1.2,2.4,2.7,4.2,4.6,5.6c1.9,1.4,4.1,2.4,6.6,3.1c2.5,0.7,7.1,1.5,13.8,2.5   c9.2,1.3,15.9,2.9,20,4.7c4.2,1.8,7.5,4.8,10,8.8c2.5,4,3.8,8.8,3.8,14.5c0,11-4.5,20.2-13.5,27.6c-9,7.4-19.9,11-32.7,11   c-10.7,0-20.1-1.9-28.2-5.8l-0.5-1C1208.2,1787.7,1208.6,1780.1,1208.9,1768.1z"/>
			<path fill="#FFFFFF" d="M1394.8,1781.7l-3,7.2c-11.5,5.9-23.8,8.8-36.9,8.8c-18.7,0-33.9-5.3-45.6-15.9   c-11.7-10.6-17.5-24.5-17.5-41.7c0-11.8,2.9-22.2,8.8-31c5.8-8.8,13.5-15.4,23.1-19.8c9.6-4.4,20.3-6.6,32.2-6.6   c6.9,0,13.7,0.7,20.5,2.2c6.7,1.5,12.4,3.2,16.9,5.2l0.5,0.8c-1.2,2.9-2.3,10.1-3.3,21.5l-0.5,0.6h-3.7l-0.6-0.6l-0.8-13.2   c-3.8-3-8.4-5.4-13.7-7c-5.4-1.7-11-2.5-16.8-2.5c-8.8,0-16.6,1.9-23.6,5.6c-7,3.8-12.3,9.2-16.2,16.3c-3.8,7.1-5.8,15.9-5.8,26.2   c0,10.4,2.3,19.5,6.8,27.3c4.5,7.8,10.7,13.8,18.5,18c7.8,4.2,16.9,6.3,27.3,6.3c4.6,0,9-0.4,13.3-1.3c4.2-0.9,7.8-2,10.6-3.3   c2.8-1.3,5.5-2.9,8.1-4.7L1394.8,1781.7z"/>
			<path fill="#FFFFFF" d="M1401.6,1685.5l0.6-0.5c12.9,0.4,20.3,0.6,22.2,0.6c1.8,0,9.2-0.2,22.3-0.6l0.6,0.5v3.9l-0.6,0.5   c-3.6,0.1-6.3,0.3-8.3,0.5c-1.9,0.2-3.4,0.6-4.2,1.2c-0.9,0.6-1.5,1.9-1.7,4c-0.3,2.1-0.4,5-0.4,8.7l-0.2,17.9v24.7   c0,8.1,0.2,14.1,0.5,17.9c0.3,3.8,1.1,7,2.2,9.6c1.1,2.6,2.8,4.9,5.1,6.8c2.3,1.9,5.5,3.4,9.8,4.6c4.3,1.2,9.1,1.8,14.5,1.8   c5.7,0,11-0.8,16-2.4c5-1.6,8.7-3.9,11.3-6.9c2.6-3,4.3-7,5.1-11.9c0.8-4.9,1.2-11.7,1.2-20.4v-24c0-4-0.1-9.6-0.2-16.7   c-0.1-7.1-0.4-11.1-0.9-12.2c-0.5-1.1-1.4-1.9-2.7-2.4c-1.3-0.5-5-0.9-11-1l-0.6-0.6v-3.7l0.6-0.7c7.7,0.4,13.8,0.6,18.4,0.6   c3.9,0,10.1-0.2,18.4-0.6l0.7,0.6v3.7l-0.7,0.6c-4.9,0.1-8,0.3-9.5,0.6c-1.5,0.3-2.5,0.7-3.1,1.3c-0.6,0.6-1,1.5-1.3,2.6   c-0.3,1.2-0.5,4.6-0.6,10.3l-0.2,17.5v23.6c0,9.4-0.4,16.9-1.1,22.3c-0.7,5.4-2.3,9.9-4.9,13.4c-2.5,3.5-5.5,6.4-8.9,8.8   c-3.4,2.4-7.9,4.2-13.3,5.4c-5.4,1.3-11,1.9-16.8,1.9c-7.3,0-13.7-0.8-19.2-2.4c-5.6-1.6-10-3.7-13.2-6.4c-3.2-2.6-5.5-5.4-6.9-8.4   c-1.4-2.9-2.3-6.4-2.7-10.3c-0.4-4-0.6-10-0.6-18.2v-29.9l-0.2-15.2c-0.1-5.9-0.2-9.7-0.4-11.4c-0.2-1.7-0.6-2.9-1.1-3.4   c-0.5-0.6-1.4-1-2.8-1.4s-4.8-0.6-10.3-0.9l-0.6-0.5V1685.5z"/>
			<path fill="#FFFFFF" d="M1529.3,1768.1l0.6-0.6h3.8l0.6,0.6c0.3,6.6,0.6,10.7,1.1,12.2c0.4,1.5,1.8,3,4.2,4.7c2.4,1.6,5.5,3,9.4,4   c3.9,1,7.9,1.6,11.9,1.6c5.5,0,10.4-1,14.8-3c4.4-2,7.8-5,10.2-8.9c2.4-3.9,3.7-8.3,3.7-13.2c0-3.4-0.6-6.4-1.8-8.9   c-1.2-2.5-2.8-4.6-4.9-6.1c-2.1-1.5-4.5-2.7-7.2-3.4c-2.7-0.8-6.7-1.6-12.1-2.4c-5.2-0.8-9.2-1.6-12.2-2.3   c-2.9-0.7-5.8-1.7-8.7-3.1c-2.9-1.4-5.3-3.2-7.3-5.3c-1.9-2.2-3.5-4.8-4.7-7.9c-1.2-3.1-1.7-6.5-1.7-10.1c0-9.7,3.4-17.6,10.1-23.8   c6.7-6.2,15.8-9.3,27.1-9.3c4.5,0,9.4,0.6,14.7,1.7c5.3,1.1,10.1,2.8,14.5,4.9l0.5,0.9c-1.1,4.8-1.8,11.6-2.1,20.4l-0.7,0.6h-4   l-0.6-0.5c-0.1-6.2-0.3-10.1-0.5-11.7s-2.6-3.6-7.1-6c-4.5-2.4-9.4-3.6-14.7-3.6c-4.4,0-8.5,0.9-12.4,2.6c-3.8,1.8-6.7,4.5-8.7,8.3   c-2,3.8-3,7.6-3,11.6c0,3.1,0.6,5.8,1.8,8.1c1.2,2.4,2.7,4.2,4.6,5.6c1.9,1.4,4.1,2.4,6.6,3.1c2.5,0.7,7.1,1.5,13.8,2.5   c9.2,1.3,15.9,2.9,20,4.7c4.2,1.8,7.5,4.8,10,8.8c2.5,4,3.8,8.8,3.8,14.5c0,11-4.5,20.2-13.5,27.6c-9,7.4-19.9,11-32.7,11   c-10.7,0-20.1-1.9-28.2-5.8l-0.5-1C1528.7,1787.7,1529,1780.1,1529.3,1768.1z"/>
			<path fill="#FFFFFF" d="M1652.7,1768.1l0.6-0.6h3.8l0.6,0.6c0.3,6.6,0.6,10.7,1.1,12.2c0.4,1.5,1.8,3,4.2,4.7c2.4,1.6,5.5,3,9.4,4   c3.9,1,7.9,1.6,11.9,1.6c5.5,0,10.4-1,14.8-3c4.4-2,7.8-5,10.2-8.9c2.4-3.9,3.7-8.3,3.7-13.2c0-3.4-0.6-6.4-1.8-8.9   c-1.2-2.5-2.8-4.6-4.9-6.1c-2.1-1.5-4.5-2.7-7.2-3.4c-2.7-0.8-6.7-1.6-12.1-2.4c-5.2-0.8-9.2-1.6-12.2-2.3   c-2.9-0.7-5.8-1.7-8.7-3.1c-2.9-1.4-5.3-3.2-7.3-5.3c-1.9-2.2-3.5-4.8-4.7-7.9c-1.2-3.1-1.7-6.5-1.7-10.1c0-9.7,3.4-17.6,10.1-23.8   c6.7-6.2,15.8-9.3,27.1-9.3c4.5,0,9.4,0.6,14.7,1.7c5.3,1.1,10.1,2.8,14.5,4.9l0.5,0.9c-1.1,4.8-1.8,11.6-2.1,20.4l-0.7,0.6h-4   l-0.6-0.5c-0.1-6.2-0.3-10.1-0.5-11.7c-0.2-1.6-2.6-3.6-7.1-6c-4.5-2.4-9.4-3.6-14.7-3.6c-4.4,0-8.5,0.9-12.4,2.6   c-3.8,1.8-6.7,4.5-8.7,8.3c-2,3.8-3,7.6-3,11.6c0,3.1,0.6,5.8,1.8,8.1c1.2,2.4,2.7,4.2,4.6,5.6c1.9,1.4,4.1,2.4,6.6,3.1   c2.5,0.7,7.1,1.5,13.8,2.5c9.2,1.3,15.9,2.9,20,4.7c4.2,1.8,7.5,4.8,10,8.8c2.5,4,3.8,8.8,3.8,14.5c0,11-4.5,20.2-13.5,27.6   c-9,7.4-19.9,11-32.7,11c-10.7,0-20.1-1.9-28.2-5.8l-0.5-1C1652.1,1787.7,1652.5,1780.1,1652.7,1768.1z"/>
			<path fill="#FFFFFF" d="M1731.4,1692.3l-0.7-0.7v-3.3l0.7-0.7l22-3.7c1.6,1.1,3.1,2.5,4.5,4.1c1.5,1.7,3.6,4.8,6.5,9.3   c2.8,4.5,6.5,10.9,10.9,19c4.5,8.1,8.7,16.2,12.8,24.4l7.9-12.6l8.9-14.9l16.5-28.2c2,0.2,4,0.3,5.9,0.3c1.2,0,3-0.1,5.4-0.3   l0.6,0.6v1.5c-2.6,2.9-6.6,8-12.1,15.5s-9.5,13.4-12.2,17.6c-2.7,4.2-5.9,9.5-9.8,15.9c-3.9,6.4-6,10.3-6.4,11.6   c-0.4,1.3-0.5,2.8-0.5,4.6v11.4l0.1,11.7c0.1,4.5,0.2,7.7,0.5,9.5c0.3,1.8,0.7,3,1.2,3.5c0.5,0.5,1.4,1,2.8,1.4   c1.4,0.4,4.8,0.6,10.3,0.9l0.6,0.5v3.9l-0.6,0.6c-0.3,0-4.8-0.2-13.7-0.5c-3.7-0.1-6.6-0.2-8.6-0.2c-1.7,0-9.1,0.2-22.2,0.6   l-0.6-0.6v-3.9l0.6-0.5c4.9-0.2,8.2-0.5,9.7-0.8c1.6-0.3,2.6-0.7,3.2-1.2c0.5-0.5,1-1.5,1.3-2.9c0.3-1.4,0.5-4.3,0.5-8.7l0.2-13.3   v-14.8c-1.1-2.8-5-9.5-11.4-20.1l-6.8-11.1c-2.2-3.5-4.9-7.6-8.2-12.3c-3.3-4.7-5.8-7.9-7.7-9.6c-1.8-1.7-3.2-2.7-4.2-3   C1738.3,1692.4,1735.7,1692.3,1731.4,1692.3z"/>
			<path fill="#FFFFFF" d="M1839.7,1685.5l0.6-0.5c9.5,0.4,16.9,0.6,22.2,0.6c5.9,0,13.8-0.2,23.7-0.5c3.7-0.1,6.4-0.2,8-0.2   c13.1,0,22,2.4,26.7,7.2c4.7,4.8,7,10.4,7,17c0,4.4-1.1,8.6-3.4,12.8c-2.3,4.2-5.7,7.8-10.1,10.8c-4.5,3-10.6,5.2-18.4,6.7   c1.5,2,4.1,5.5,7.9,10.5l11,14.6c3.6,4.8,7.4,9.9,11.5,15.3s6.7,8.4,7.9,9.1c1.2,0.7,2.2,1.1,3.1,1.3c0.9,0.2,2.2,0.2,4.1,0.2   l0.6,0.6v3.7l-0.7,0.7c-2.5-0.3-5.4-0.5-8.9-0.5c-3.7,0-7.7,0.2-12.1,0.5c-3.6-4.4-9.2-11.9-16.9-22.6c-8.9-12.4-18-24-27.4-34.6   l0.8-2.4c2.7,0.2,4.8,0.2,6.3,0.2c9,0,16-2.2,21.1-6.5c5.1-4.3,7.6-10.3,7.6-17.9c0-6.8-2.3-12-6.8-15.5   c-4.6-3.5-10.7-5.2-18.5-5.2c-5.4,0-10.6,0.8-15.4,2.3c-0.8,1.1-1.2,10.9-1.2,29.2v36l0.1,15.2c0.1,5.9,0.2,9.6,0.5,11.4   c0.3,1.7,0.6,2.9,1.1,3.4c0.5,0.6,1.4,1.1,2.8,1.4c1.4,0.4,4.8,0.7,10.3,0.9l0.6,0.5v3.9l-0.6,0.6c-0.3,0-4.8-0.2-13.7-0.5   c-3.7-0.1-6.6-0.2-8.6-0.2c-1.6,0-9,0.2-22.2,0.6l-0.6-0.6v-3.9l0.6-0.5c4.8-0.2,8-0.5,9.6-0.8c1.6-0.3,2.7-0.7,3.2-1.2   c0.5-0.5,1-1.5,1.3-3.2c0.3-1.6,0.5-5.2,0.6-10.7l0.1-16.4v-36l-0.2-15.2c-0.1-5.9-0.2-9.7-0.4-11.4c-0.2-1.7-0.6-2.9-1.1-3.4   c-0.5-0.6-1.4-1-2.8-1.4c-1.4-0.4-4.8-0.6-10.3-0.9l-0.6-0.5V1685.5z"/>
			<path fill="#FFFFFF" d="M1947.4,1685l9.7,0.3c6.4,0.2,10.6,0.3,12.5,0.3c1.8,0,9.2-0.2,22.3-0.6l0.6,0.5v3.9l-0.6,0.5   c-3.6,0.1-6.3,0.3-8.3,0.5c-1.9,0.2-3.4,0.6-4.2,1.2c-0.9,0.6-1.5,1.9-1.7,4c-0.3,2.1-0.4,5-0.4,8.7l-0.2,17.9v36l0.1,15.2   c0.1,5.9,0.2,9.6,0.5,11.4c0.3,1.7,0.6,2.9,1.1,3.4c0.5,0.6,1.4,1.1,2.8,1.4c1.4,0.4,4.8,0.7,10.3,0.9l0.6,0.5v3.9l-0.6,0.6   c-0.3,0-4.8-0.2-13.7-0.5c-3.7-0.1-6.6-0.2-8.6-0.2c-1.6,0-9,0.2-22.2,0.6l-0.6-0.6v-3.9l0.6-0.5c4.8-0.2,8-0.5,9.6-0.8   c1.6-0.3,2.7-0.7,3.2-1.2c0.5-0.5,1-1.5,1.3-3.2c0.3-1.6,0.5-5.2,0.6-10.7l0.1-16.4v-36l-0.2-15.2c-0.1-5.9-0.2-9.7-0.4-11.4   c-0.2-1.7-0.6-2.9-1.1-3.4c-0.5-0.6-1.4-1-2.8-1.4s-4.8-0.6-10.3-0.9l-0.6-0.5v-3.9L1947.4,1685z"/>
			<path fill="#FFFFFF" d="M1999.9,1795.5l-0.7-0.6v-4l0.7-0.6c3.8-0.1,6.2-0.2,7.3-0.6c1.1-0.3,2.1-1,2.9-2c0.9-1,2.6-4.3,5.2-9.9   l8.2-17.7l21.2-47.9c4-9.4,8-18.8,11.9-28.2h5.1l33.2,78.1l4.4,10.4c1.3,3,2.8,6.2,4.5,9.6c1.7,3.5,2.9,5.5,3.5,6.1   c0.6,0.6,1.5,1.1,2.4,1.4c1,0.3,3.1,0.5,6.4,0.6l0.6,0.6v4l-0.6,0.6c-5.5-0.5-10.4-0.7-14.9-0.7c-8.6,0.3-17.2,0.5-25.8,0.7   l-0.6-0.6v-4l0.6-0.6c5.8-0.1,9.4-0.3,10.9-0.7c1.5-0.4,2.2-1.3,2.2-2.7c0-1.1-0.4-2.6-1.1-4.5l-9.6-23.7h-45l-8.5,19.9   c-1.5,3.6-2.3,6.2-2.3,7.9c0,1.3,0.7,2.3,2.1,2.9c1.4,0.6,4.9,1,10.6,1l0.7,0.6v4l-0.6,0.6c-6.7-0.4-12.5-0.6-17.6-0.6   C2011.5,1794.9,2005.7,1795.1,1999.9,1795.5z M2035.4,1751.9h39.4l-19.5-46.9L2035.4,1751.9z"/>
		</g>
		
		
		</svg>